<svg xmlns="http://www.w3.org/2000/svg" xml:space="preserve" width="4000" height="4000"><defs><clipPath id="a" clipPathUnits="userSpaceOnUse"><path d="M0 3000h3000V0H0Z"/></clipPath></defs><path d="M0 0h3000v3000H0Z" style="fill:#fff;fill-opacity:1;fill-rule:nonzero;stroke:none" transform="matrix(1.33333 0 0 -1.33333 0 4000)"/><g clip-path="url(#a)" transform="matrix(1.33333 0 0 -1.33333 0 4000)"><path d="M0 0c4.796-3.862 6.883-4.557 6.26-2.084.272-1.279.062.338.06.542-.016 1.388.125 2.781.258 4.162.355 3.714 1.021 7.401 1.692 11.069 1.236 6.758 2.48 13.81 4.91 20.262 4.184 11.105 13.607 21.02 21.49 29.589 9.015 9.799 18.955 18.691 27.986 28.466 18.088 19.578 33.601 41.43 44.307 65.922 10.476 23.968 14.598 50.987 2.878 75.278-2.831 5.868-11.195.743-8.635-5.047 6.141-13.89 11.688-28.035 18.199-41.761 6.155-12.973 14.035-24.971 20.637-37.703 6.374-12.29 10.608-25.393 10.468-39.343-.106-10.574-3.439-20.789-8.283-30.092-10.087-19.373-26.214-34.903-39.717-51.826C86.954 7.938 75.674-13.579 75.132-39.075c-.375-17.64 5.127-34.776 12.074-50.766 2.564-5.901 11.177-.804 8.635 5.047-6.07 13.97-10.408 28.649-10.71 43.961-.273 13.821 3.535 27.457 9.947 39.623 10.248 19.446 26.381 35.064 39.967 52.106 13.339 16.731 24.33 35.263 25.426 57.134 1.42 28.38-15.714 51.275-28.286 75.109-8.533 16.176-14.959 33.362-22.344 50.067l-8.635-5.047c12.867-26.669 2.491-56.154-10.403-80.607-13.355-25.326-32.441-45.865-52.535-65.911C22.424 65.834 5.93 48.828.719 26.452-1.166 18.359-2.706 10.106-3.498 1.83c-.46-4.802 1.124-14.972 8.545-10.465C10.549-5.293 5.527 3.356 0 0" style="fill:#000;fill-opacity:1;fill-rule:nonzero;stroke:none" transform="translate(860.477 2111.155)"/><path d="M0 0c-4.347 3.224-7.505 6.951-12.415 9.529-5.14 2.698-10.786 4.285-16.499 5.155-11.269 1.716-22.633.198-33.818-1.417C-74.667 11.542-86.289 9.331-97.892 6c-12.233-3.513-24.241-7.771-36.379-11.59-22.642-7.123-45.989-12.285-69.736-8.178-19.977 3.454-36.343 14.095-46.199 31.974-3.113 5.648-11.75.604-8.635-5.047 9.654-17.511 25.074-29.366 44.255-34.786 22.333-6.312 45.896-3.698 68.022 2.045 24.537 6.37 47.976 16.491 72.972 21.163 12.072 2.256 24.694 4.154 36.996 3.826 6.033-.161 12.102-1.381 17.643-3.798C-13.376-.823-9.814-5.099-5.047-8.635.14-12.482 5.117-3.795 0 0" style="fill:#000;fill-opacity:1;fill-rule:nonzero;stroke:none" transform="translate(865.523 2107.155)"/><path d="m0 0 2-2C6.025-6.024 12.749-.863 9.853 4.059l-.156.266C8.141 6.97 4 7.787 1.844 5.337 1.218 4.626.659 3.897.218 3.059-.857 1.017-.604-1.309 1-3c-1.488 1.568.094-1.776.218-1.988.632-1.078 1.684-1.699 2.608-2.489 2.118-1.812 3.922-4.074 5.61-6.276 4.033-5.265 7.645-10.832 11.738-16.055C30.069-41.157 41.213-51.2 51.895-60.824c21.237-19.134 44.332-35.794 70.812-46.866 26.127-10.924 54.016-13.791 81.753-8.279 13.958 2.774 27.432 7.539 41.43 10.165 14.635 2.745 27.862 1.401 41.057-5.535 12.702-6.677 25.917-14.729 33.093-27.608 3.138-5.634 11.776-.592 8.634 5.047-6.206 11.139-16.306 19.097-26.985 25.709-11.596 7.181-23.272 12.797-37.049 13.74-14.002.958-28.169-2.886-41.553-6.495-13.867-3.74-27.593-7.401-42.022-7.984-58.654-2.371-110.006 39.616-147.574 80.221C24.545-19.04 18.624-6.206 8.059 1.853l2.477-4.317C10.5.232 9.941 2.1 8.071 4.071l.782-6.059c.222.275.243.36.062.254L1.062-.722l.156-.266 7.853 6.059-2 2C2.507 11.635-4.563 4.564 0 0" style="fill:#000;fill-opacity:1;fill-rule:nonzero;stroke:none" transform="translate(602.464 2121.302)"/><path d="M0 0c-7.81-7.726 7.532-21.658 12.533-26.642 9.944-9.906 20.842-18.825 32.164-27.104C67.52-70.434 92.761-83.718 119.05-94.033c24.559-9.635 49.672-13.194 75.342-5.663 24.548 7.202 47.277 23.364 64.889 41.622 36.684 38.032 42.45 94.086 62.858 140.767 20.069 45.904 48.963 87.863 84.227 123.399 35.262 35.534 77.591 64.49 124.361 82.595 24.976 9.668 51.429 16.23 77.742 21.02 29.049 5.289 58.799 7.423 88.264 5.061 17.795-1.426 35.935-4.686 52.691-10.972 15.202-5.702 29.15-15.09 40.963-26.133 11.531-10.78 21.157-23.975 26.66-38.838a71.588 71.588 0 0 0 4.398-22.365c.271-7.702-.06-19.44-5.445-25.46-4.285-4.79 2.763-11.887 7.071-7.071 8.05 8.999 8.887 23.845 8.244 35.386-.664 11.901-4.407 23.349-9.745 33.932-11.055 21.915-30.379 39.629-51.461 51.722-23.191 13.302-50.5 18.127-76.855 20.067-29.207 2.15-58.675-.568-87.443-5.686-51.229-9.115-100.239-26.498-143.92-55.019-41.948-27.391-77.982-63.289-107.066-103.975-14.5-20.285-27.071-41.94-37.651-64.514-10.999-23.467-18.742-47.957-26.551-72.611-7.839-24.748-17.052-49.352-34.05-69.408-16.629-19.62-40.188-36.266-64.84-43.876-34.743-10.725-68.688 3.279-99.52 18.954-16.849 8.565-32.917 18.668-47.974 30.088-7.337 5.565-14.315 11.615-21.012 17.93-3.181 2.999-6.298 6.054-9.101 9.409-1.37 1.639-2.712 3.294-3.979 5.013a35.276 35.276 0 0 0-1.494 2.246c-1.662 2.61.394 1.296-1.582-.658C11.661-2.531 4.587 4.537 0 0" style="fill:#000;fill-opacity:1;fill-rule:nonzero;stroke:none" transform="translate(947.464 2028.373)"/><path d="M0 0c-5.924 7.185-17.392 8.939-26.01 10.327a254.315 254.315 0 0 1-33.797 3.14c-29.12.732-58.53-5.332-86.074-14.404-47.626-15.685-87.169-45.91-120.547-82.754-65.218-71.991-107.709-164.983-190.116-220.527-19.559-13.183-40.873-23.571-63.424-30.508-24.796-7.628-50.365-10.185-76.221-9.895-29.642.334-59.313 4.086-87.662 12.933-13.419 4.187-26.118 10.089-38.856 15.968-12.363 5.706-24.607 11.673-36.584 18.157-15.775 8.541-31.087 18.139-44.9 29.624-6.092 5.065-13.149 10.547-16.897 17.629-3.266 6.17-5.559 13.538-10.912 18.31l1.465-3.536-.041.452c-.286 3.145-2.986 5.804-6.329 4.821-2.578-.758-4.296-3.578-4.052-6.257.448-4.927 6.47-6.857 9.317-2.523.431.654.656 1.445.926 2.178 2.235 6.065-7.433 8.656-9.642 2.658l.082.21 9.317-2.523c.112-1.229-.136-.571.103.077l-3.493-3.492.1.029-6.329 4.822c.229-2.527 1.262-3.602 2.908-5.36 1.633-1.746 2.694-4.276 3.772-6.379 2.382-4.65 4.167-10.386 7.825-14.248 9.01-9.512 19.103-17.833 29.756-25.437 22.15-15.812 46.819-27.85 71.473-39.189 12.574-5.783 25.133-11.406 38.333-15.635 14.057-4.502 28.564-7.531 43.156-9.664 27.759-4.058 56.505-5.161 84.409-1.959 47.85 5.491 91.515 26.014 128.895 55.936 38.185 30.568 67.834 69.624 96.249 109.033 28.7 39.803 56.518 80.633 91.646 115.182 17.425 17.137 36.707 32.277 58.008 44.307 23.699 13.386 49.926 21.99 76.531 27.391 20.151 4.091 40.911 5.75 61.409 3.752 7.171-.699 14.334-1.338 21.43-2.628 5.794-1.054 13.73-2.268 17.706-7.089C-2.965-12.051 4.068-4.934 0 0" style="fill:#000;fill-opacity:1;fill-rule:nonzero;stroke:none" transform="translate(1762.356 2220.414)"/><path d="M0 0c14.972-26.404 26.401-54.391 43.818-79.405 14.607-20.978 31.685-40.105 50.966-56.887 39.86-34.694 87.774-62.156 140.036-72.028 29.832-5.636 60.927-7.022 91.226-6.672 30.733.354 61.415 3.977 91.219 11.549 49.439 12.562 96.032 35.563 136.866 66.015 41.54 30.979 77.608 69.935 105.415 113.673 15.854 24.939 27.643 52.21 39.357 79.254 5.807 13.408 11.375 27.006 17.983 40.045 6.203 12.24 13.9 23.73 22.292 34.569 14.839 19.164 31.893 36.481 47.593 54.92 17.145 20.135 30.942 43.023 49.582 61.885 4.535 4.59-2.534 11.664-7.071 7.072-20.15-20.391-35.122-45.235-53.859-66.865-17.526-20.232-36.236-39.431-51.783-61.296-16.676-23.451-26.87-50.458-38.318-76.662-11.816-27.05-24.427-53.875-41.269-78.218-58.982-85.251-147.269-149.299-249.893-169.364-31.92-6.241-64.667-7.453-97.098-6.137-29.004 1.178-58.041 3.932-85.956 12.249-26.181 7.8-50.003 20.798-72.76 35.698-21.641 14.168-41.7 30.563-59.4 49.447C65.208-92.502 53.233-76.34 42.521-59.369 29.569-38.852 20.592-16.04 8.635 5.047 5.455 10.655-3.186 5.617 0 0" style="fill:#000;fill-opacity:1;fill-rule:nonzero;stroke:none" transform="translate(934.183 1965.384)"/><path d="M0 0c26-28-9-61-20-81-23-37-41-62-34-106 14 18 27 36 45 52 17 16 38 27 55 42C75-67 96-20 97 19c0 1-1 3-1 4z" style="fill:#000;fill-opacity:1;fill-rule:nonzero;stroke:none" transform="translate(1168 1861.838)"/><path d="M0 0c11.76-13.113 8.192-28.528.359-42.662-7.577-13.674-17.367-26.265-25.668-39.528-9.567-15.285-19.195-30.619-25.476-47.608-6.553-17.724-7.327-36.452-4.501-54.995.537-3.524 6.157-5.041 8.357-2.207 15.236 19.622 30.181 39.015 48.889 55.52 18.159 16.019 40.291 26.99 57.27 44.437C74.138-71.725 85.055-52.802 93.16-33.15c4.14 10.039 7.279 20.487 9.475 31.118 1.091 5.279 1.832 10.635 2.375 15.995.241 2.381.376 4.77.481 7.16.107 2.445-.729 4.395-1.134 6.742-.474 2.751-3.705 4.078-6.15 3.492l-96-23c-6.27-1.502-3.611-11.145 2.658-9.643l96 23-6.151 3.493c1.556-9.023-.408-18.587-2.35-27.549-2.212-10.209-5.495-20.246-9.558-29.865-8.117-19.219-19.596-37.351-34.723-51.806-16.535-15.799-37.356-26.425-54.504-41.552-18.228-16.081-32.741-35.253-47.579-54.364l8.357-2.206c-2.871 18.838-.84 37.461 6.595 55.036 7.439 17.583 18.581 33.349 28.373 49.641C-2.739-64.253 7.555-52.7 13.576-38.352c6.742 16.067 5.349 32.204-6.505 45.423C2.757 11.881-4.291 4.786 0 0" style="fill:#000;fill-opacity:1;fill-rule:nonzero;stroke:none" transform="translate(1164.464 1858.302)"/><path d="M0 0c.213-1.277-3.148-31.596 4-45 22-38 78-41 116-35 8 1 17 4 26 6v2C87.525-52.508 52.616-7.231 72 55Z" style="fill:#000;fill-opacity:1;fill-rule:nonzero;stroke:none" transform="translate(1478.606 1833.116)"/><path d="M0 0c26.12-42.022 69.371-73.93 114.684-92.576 23.012-9.469 46.53-13.609 71.279-14.695 24.953-1.096 50.01.157 74.666 4.197 46.91 7.685 91.62 27.442 125.74 61.007 9.112 8.964 16.794 19.115 25.077 28.813 8.766 10.264 17.888 20.216 26.463 30.645 8.283 10.072 15.95 20.663 22.15 32.156 6.91 12.81 10.59 27.408 15.51 41.05 1.097 3.041-3.736 4.339-4.821 1.329-5.174-14.347-9.169-29.384-16.604-42.774-6.953-12.524-15.941-23.815-25.186-34.702-9.075-10.688-18.581-21.003-27.481-31.841-8.264-10.063-16.68-19.703-26.389-28.421-37.797-33.939-87.589-50.419-137.467-55.249-22.239-2.153-44.673-1.975-66.936-.297-22.237 1.675-43.806 8.422-64.005 17.668C66.318-65.217 27.939-35.479 4.317 2.523 2.62 5.255-1.708 2.747 0 0" style="fill:#000;fill-opacity:1;fill-rule:nonzero;stroke:none" transform="translate(961.841 1944.576)"/><path d="M0 0c1.979-1.494 1.408-6.134 1.1-8.363-.794-5.731-2.706-11.326-4.677-16.74-5.655-15.54-13.249-30.409-20.951-45.013-13.101-24.842-27.007-49.82-43.006-72.945-29.519-42.666-63.869-81.745-105.73-112.735-42.834-31.712-91.68-52.067-144.763-57.742-39.505-4.223-82.506-4.335-120.579 8.359-36.574 12.193-59.795 44.462-88.365 68.105-2.464 2.039-6.021-1.477-3.535-3.535 19.156-15.853 35.376-34.955 55.253-50.073 9.929-7.552 20.744-13.789 32.393-18.269 12.481-4.8 26.055-7.217 39.252-9.034 27.773-3.822 56.104-3.473 83.958-.72 25.803 2.55 50.907 8.065 75.117 17.427C-161.01-268.98-95.619-199.56-49.761-124.439c15.083 24.708 29.478 50.005 41.778 76.226C-2.887-37.346 2.115-26.129 4.986-14.434 6.429-8.561 8.147.073 2.523 4.317-.053 6.261-2.539 1.917 0 0" style="fill:#000;fill-opacity:1;fill-rule:nonzero;stroke:none" transform="translate(1519.738 2137.68)"/><path d="M0 0c5.932-1.936 9.57-12.657 11.866-17.683 4.02-8.803 7.376-17.895 11.175-26.793 3.566-8.35 8.224-14.902 13.978-21.939 9.037-11.05 19.042-21.295 29.605-30.886 21.013-19.081 44.853-35.415 70.745-47.118 23.386-10.571 49.342-14.664 74.867-14.654 53.655.022 106.484 18.452 154.007 42.105 23.335 11.614 46.02 24.704 66.428 40.984 22.379 17.851 42.124 38.894 60.335 60.912 15.267 18.459 29.056 38.003 43.022 57.444 14.676 20.426 29.222 40.988 41.556 62.941 11.767 20.942 21.544 43.473 26.636 67.015 5.015 23.191 5.684 48.32 16.603 69.821 1.457 2.868-2.857 5.399-4.317 2.523-12.131-23.884-12.338-51.766-18.569-77.388-6.814-28.018-20.734-54.211-36.017-78.445-15.189-24.088-32.212-47.139-49.001-70.127-17.026-23.315-35.461-45.667-55.894-66.086-38.916-38.886-87.665-65.985-138.926-85.213-50.261-18.852-106.857-29.431-159.495-14.297-22.265 6.401-42.813 18.307-61.642 31.589-19.652 13.861-37.511 30.35-53.184 48.573-5.218 6.068-10.499 12.166-14.003 19.403-3.433 7.09-6.167 14.524-9.157 21.805-2.769 6.742-5.611 13.494-9.196 19.85C9.105-1.557 6.056 3.279 1.329 4.821-1.745 5.825-3.051.996 0 0" style="fill:#000;fill-opacity:1;fill-rule:nonzero;stroke:none" transform="translate(963.335 1943.427)"/><path d="M0 0c4.143-2.252 7.087-7.925 9.583-11.697 4.774-7.214 9.124-14.713 13.454-22.198 8.405-14.525 16.177-29.564 25.534-43.513 4.789-7.138 11.532-12.837 17.606-18.848 9.469-9.37 19.113-18.564 29.133-27.345 19.57-17.149 40.972-32.849 65.326-42.441 11.348-4.47 23.468-6.787 35.424-8.991 11.879-2.19 23.87-3.786 35.893-4.931a391.043 391.043 0 0 1 76.205.192c49.339 4.971 98.629 20.394 138.365 50.772 22.812 17.439 40.522 39.994 56.904 63.331 8.631 12.295 18.627 23.578 28.035 35.271 8.813 10.953 16.359 22.367 23.362 34.538 13.437 23.351 30.671 44.231 46.728 65.773 16.085 21.581 30.542 44.124 40.014 69.441 7.31 19.537 9.864 40.484 15.876 60.408 3.271 10.837 8.399 20.571 13.163 30.767 4.71 10.078 8.883 20.393 13.815 30.368 1.425 2.88-2.888 5.414-4.316 2.523-6.829-13.807-12.654-28.068-19.524-41.859-6.394-12.835-10.019-26.834-13.228-40.738-3.248-14.066-6.143-28.209-11.215-41.765-4.908-13.117-11.432-25.548-18.769-37.454-14.107-22.895-31.48-43.558-47.278-65.263-7.936-10.904-15.415-22.137-21.986-33.921-7.24-12.979-16.304-24.624-25.71-36.085-9.052-11.029-18.106-21.984-26.227-33.728-8.601-12.435-18.021-24.299-28.317-35.373-18.321-19.704-40.306-35.091-64.547-46.631-46.401-22.091-99.275-28.988-150.217-26.989-24.917.978-49.729 4.373-74.024 9.97-26.367 6.075-49.416 21.047-70.196 37.889-10.509 8.518-20.468 17.701-30.215 27.073-4.466 4.295-8.871 8.654-13.262 13.025-3.462 3.446-7.444 6.753-10.427 10.628-9.5 12.339-16.48 27.004-24.186 40.477-5.282 9.236-10.59 18.476-16.385 27.403C11.319-5.19 7.686 1.511 2.523 4.317-.31 5.857-2.833 1.54 0 0" style="fill:#000;fill-opacity:1;fill-rule:nonzero;stroke:none" transform="translate(962.738 1943.68)"/><path d="M0 0c-3.9-9.388 3.184-15.464 11.621-17.915 10.137-2.946 20.358-.776 29.796 3.363C52.266-9.794 62.413-1.53 67.799 9.154c3.579 7.1 6.487 23.702-3.724 26.592-3.109.88-4.426-3.945-1.328-4.821 3.703-1.049 3.304-8.12 3.067-11.252-.337-4.433-2.428-8.621-4.796-12.287C56.088-.245 48.087-5.77 40.057-9.695c-7.124-3.483-14.994-5.335-22.903-4.27-6.918.931-15.846 4.181-12.333 12.636C6.058 1.648 1.218 2.933 0 0" style="fill:#000;fill-opacity:1;fill-rule:nonzero;stroke:none" transform="translate(1472.59 2226.502)"/><path d="M0 0c-10.136 9.691-20.587-16.07-8.397-19.925 3.7-1.17 7.889 1.089 10.891 2.999 4.183 2.66 7.13 7.094 6.669 12.183-.375 4.15-2.995 8.069-6.839 9.764-4.533 1.998-9.151.321-12.535-3.005-3.075-3.022-5.013-7.567-5.022-11.878-.008-4.246 3.112-6.948 6.801-8.316 3.03-1.124 4.325 3.71 1.329 4.821-8.227 3.051 1.744 18.724 8.736 13.01 2.339-1.912 3.271-5.316 2.07-8.116-1.437-3.35-5.398-5.669-8.802-6.576-.797-.212-1.851-.152-2.13-.023a1.941 1.941 0 0 0-1.016 1.057c-.717 1.739-.567 3.692-.149 5.575.412 1.856 1.217 3.77 2.445 5.028.442.453 1.088.637 1.022.632.293.02.739-.141 1.392-.765C-1.206-5.762 2.335-2.231 0 0" style="fill:#000;fill-opacity:1;fill-rule:nonzero;stroke:none" transform="translate(1506.768 2246.606)"/><path d="M0 0v3c0 1.363-1.137 2.5-2.5 2.5A2.523 2.523 0 0 1-5 3V0c0-1.363 1.137-2.5 2.5-2.5S0-1.363 0 0" style="fill:#000;fill-opacity:1;fill-rule:nonzero;stroke:none" transform="translate(1308.5 2108.838)"/><path d="M0 0c.032 2.628.477 5.23 2.762 6.841 2.613 1.842.119 6.18-2.524 4.318C-3.583 8.466-4.944 4.558-5 0c-.04-3.226 4.96-3.222 5 0" style="fill:#000;fill-opacity:1;fill-rule:nonzero;stroke:none" transform="translate(1314.5 2145.838)"/><path d="M0 0c1.114 5.789 5.585 9.315 11.254 10.254 3.175.526 1.824 5.343-1.329 4.821C2.692 13.877-3.411 8.661-4.821 1.329-5.427-1.821-.609-3.165 0 0" style="fill:#000;fill-opacity:1;fill-rule:nonzero;stroke:none" transform="translate(1351.41 2187.173)"/><path d="M0 0c.989 1.092 1.345 2.355.984 3.797C.698 4.939-.078 5.992-.609 7.029c-.62 1.213-2.295 1.556-3.42.897-1.224-.717-1.518-2.207-.897-3.42.329-.644.696-1.266 1.032-1.906.129-.271.129-.258-.001.04a2.23 2.23 0 0 0 .099-.339c-.108.432-.047.894.261 1.234-.914-1.009-.999-2.536 0-3.535C-2.608-.928-.915-1.011 0 0" style="fill:#000;fill-opacity:1;fill-rule:nonzero;stroke:none" transform="translate(1416.768 2234.07)"/><path d="M0 0c.043.227.019.183-.072-.132-.223-.394.357.371.351.364.49.508 1.04.961 1.578 1.415 1.608 1.355 3.312 2.598 4.994 3.859 1.088.816 1.646 2.143.897 3.42-.629 1.075-2.328 1.717-3.42.897C2.304 8.305.274 6.792-1.678 5.182c-1.141-.94-2.904-2.277-3.143-3.853-.205-1.346.318-2.682 1.746-3.075C-1.88-2.075-.205-1.35 0 0" style="fill:#000;fill-opacity:1;fill-rule:nonzero;stroke:none" transform="translate(1457.41 2277.173)"/><path d="M0 0c.787 0 1.475.108 2.193.435.605.275 1.109.832 1.575 1.297.963.963.962 2.573 0 3.536-.964.963-2.572.962-3.536 0a32.605 32.605 0 0 0-.458-.453 9.233 9.233 0 0 0-.177-.163c-.323-.29.534.375.21.169-.216-.115-.086-.062.39.158-.193-.071-.586-.062.353.033C.368 4.994.183 5 0 5c-1.363-.001-2.5-1.137-2.5-2.5C-2.5 1.138-1.363-.001 0 0" style="fill:#000;fill-opacity:1;fill-rule:nonzero;stroke:none" transform="translate(1486 2292.338)"/><path d="M0 0c-.91-.049-1.606-.298-2.429-.677-.224-.104-.444-.22-.666-.328a5.74 5.74 0 0 1 .097.042C-3.203-1.04-3.662-1.035-3-1c-1.36-.073-2.5-1.082-2.5-2.5C-5.5-4.808-4.362-6.073-3-6c.91.049 1.606.298 2.429.677.224.104.444.22.666.328a5.74 5.74 0 0 1-.097-.042C.203-4.96.662-4.965 0-5c1.36.073 2.5 1.082 2.5 2.5C2.5-1.192 1.362.073 0 0" style="fill:#000;fill-opacity:1;fill-rule:nonzero;stroke:none" transform="translate(1403 2195.338)"/><path d="M0 0c-2.462-1.287-4.61-3.435-5.897-5.897-.631-1.208-.319-2.708.897-3.42 1.133-.664 2.79-.31 3.42.897a9.632 9.632 0 0 0 4.103 4.103c1.207.63 1.561 2.287.897 3.42C2.708.319 1.208.631 0 0" style="fill:#000;fill-opacity:1;fill-rule:nonzero;stroke:none" transform="translate(1370.738 2169.997)"/><path d="M0 0c-1.286-1.36-1.73-2.932-1.732-4.768-.002-1.362 1.138-2.5 2.5-2.5 1.363 0 2.498 1.138 2.5 2.5 0 .167.001.334.004.5.003.179.124.917-.006.169.03.174.319.821.037.236.06.115.128.227.202.334-.179-.229-.169-.231.03-.006.936.989.984 2.552 0 3.535C2.592.943.936.99 0 0" style="fill:#000;fill-opacity:1;fill-rule:nonzero;stroke:none" transform="translate(1287.232 2054.606)"/><path d="M0 0c-3.376-3.503-5.597-7.849-5.732-12.768-.089-3.226 4.911-3.217 5 0 .098 3.585 1.819 6.692 4.267 9.233C5.772-1.214 2.241 2.326 0 0" style="fill:#000;fill-opacity:1;fill-rule:nonzero;stroke:none" transform="translate(1270.232 2034.605)"/><path d="M0 0c-1.701-.871-3.16-2.045-4.506-3.391-2.283-2.281 1.253-5.817 3.535-3.535.496.495.997.98 1.537 1.428-.206-.153-.189-.14.052.038.205.151.42.29.633.428.409.265.84.493 1.272.715 1.212.62 1.557 2.294.897 3.42C2.704.327 1.213.621 0 0" style="fill:#000;fill-opacity:1;fill-rule:nonzero;stroke:none" transform="translate(1215.738 1958.997)"/><path d="M0 0c-2.138-1.126-3.863-2.874-6-4-2.854-1.503-.327-5.819 2.523-4.317 2.138 1.126 3.863 2.874 6 4C5.377-2.814 2.85 1.501 0 0" style="fill:#000;fill-opacity:1;fill-rule:nonzero;stroke:none" transform="translate(1182.738 1936.997)"/><path d="M0 0c-.627-.609-1.994-2.044-2.971-1.609-1.245.554-2.675.374-3.42-.897-.631-1.077-.349-2.866.897-3.42 3.465-1.542 6.463-.103 9.029 2.391C5.851-1.285 2.313 2.247 0 0" style="fill:#000;fill-opacity:1;fill-rule:nonzero;stroke:none" transform="translate(1152.232 1926.605)"/><path d="M0 0c-1.564 3.438-5.633 3.919-5.986-.48-.358-4.47 2.02-9.226 1.108-13.6-3.785-18.147-20.414-29.456-33.023-41.433-13.636-12.952-28.469-25.046-40.668-39.406-5.604-6.596-10.847-14.079-13.039-22.55-2.264-8.747.807-17.97.949-26.793.053-3.22 5.053-3.226 5 0-.129 7.985-2.566 16.03-1.419 24.005 1.241 8.632 7.591 16.561 13.062 23.001 10.982 12.928 24.509 23.413 36.614 35.224 10.539 10.283 22.746 19.256 30.965 31.654C-3.419-25.825.787-18.2.292-12.552c-.177 2.018-.514 4.028-.77 6.036a113.642 113.642 0 0 0-.385 3.444c-.064.655.124 2.835-.266 2.201l-2.159-1.237c-1.65-.187-1.972 1.656-1.029-.415C-2.984-5.455 1.325-2.911 0 0" style="fill:#000;fill-opacity:1;fill-rule:nonzero;stroke:none" transform="translate(984.159 2256.1)"/><path d="M0 0c2.712-10.009 14.309-10.92 22.978-10.391 13.324.815 26.515 4.879 39.1 9.088 13.059 4.367 25.685 10.608 39.25 13.205 11.543 2.21 24.501.843 35.226-4.035 8.94-4.066 16.908-8.591 26.857-9.702 3.201-.358 3.167 4.646 0 5-9.423 1.052-17.277 5.81-25.739 9.658-8.824 4.014-19.27 5.357-28.876 4.953-14.449-.608-27.511-6.93-40.875-11.759C56.028 1.719 43.866-2.104 31.4-4.334 24.21-5.622 7.508-8.586 4.821 1.329 3.979 4.438-.845 3.117 0 0" style="fill:#000;fill-opacity:1;fill-rule:nonzero;stroke:none" transform="translate(689.59 2066.173)"/><path d="M0 0c-16.596-16.306-27.807-37.358-37.571-58.229-10.768-23.016-19.589-46.873-29.564-70.23-22.664-53.066-53.473-102.6-87.176-149.291-15.068-20.876-30.893-41.198-47.105-61.197-13.367-16.49-26.577-33.5-41.08-49.012-9.408-10.062-19.598-19.462-29.807-28.698-5.083-4.598-10.238-9.127-15.574-13.429-1.833-1.479-3.707-2.909-5.666-4.219a23.111 23.111 0 0 0-1.826-1.098c-1.52-.823.693.918 1.547-1.7-.995 3.051-5.824 1.745-4.821-1.329 2.576-7.897 20.859 10.27 23.069 12.193 12.178 10.596 24.052 21.677 35.25 33.308 16.385 17.02 30.961 36.217 45.791 54.585 18.285 22.648 35.977 45.783 52.747 69.577 31.33 44.457 59.47 91.616 80.666 141.784 9.323 22.066 17.782 44.492 27.866 66.232 9.503 20.489 20.527 41.24 36.789 57.218C5.838-1.273 2.301 2.261 0 0" style="fill:#000;fill-opacity:1;fill-rule:nonzero;stroke:none" transform="translate(1706.232 2231.606)"/><path d="M0 0c.649 4.484.069 8.64 1.828 12.91 2.013 4.885 5.619 9.186 9.245 12.947 7.073 7.336 15.781 13.686 24.948 18.095 19.984 9.611 42.643 7.664 63.983 5.225 22.828-2.611 45.195-3.405 67.447 3.337 10.462 3.17 20.189 8.207 29.223 14.303 4.71 3.179 9.181 6.709 13.653 10.208a950.8 950.8 0 0 0 6.746 5.248c1.519 1.167 1.899 2.256 3.794 2.791 4.574 1.293 2.787 11.016-2.406 9.549-3.671-1.037-6.626-4.7-9.598-7.017-4.484-3.497-8.944-7.019-13.551-10.357-9.732-7.051-20.472-12.209-31.964-15.691-23.764-7.199-48.035-3.92-72.203-1.465-22.719 2.308-45.303 1.222-65.351-10.803-8.491-5.093-16.247-11.794-22.767-19.212-3.26-3.711-5.821-7.921-7.885-12.394-2.369-5.131-1.702-9.94-2.482-15.328C-8.152-3.264-.942-6.506 0 0" style="fill:#000;fill-opacity:1;fill-rule:nonzero;stroke:none" transform="translate(2150.67 1210.998)"/><path d="M0 0c-9.739 1.104-15.183-11.281-18.204-18.516-4.65-11.132-7.444-23.04-11.333-34.447-4.347-12.75-10.251-24.749-19.218-34.906-7.576-8.583-17.103-15.277-27.301-20.386-41.183-20.633-91.318-19.179-128.391-48.779-10.464-8.355-19.913-17.849-28.431-28.169-7.836-9.494-15.347-20.638-17.306-33.03-.894-5.655 8.578-3.108 9.307 1.507 1.717 10.857 9.02 20.499 15.753 28.823 7.328 9.059 15.912 17.27 24.892 24.674 17.823 14.696 40.713 21.474 62.659 27.268 22.222 5.868 45.024 10.811 65.603 21.401 22.211 11.431 38.529 29.362 48.07 52.449 4.32 10.455 7.235 21.45 10.711 32.198 1.418 4.385 2.896 8.749 4.739 12.976.758 1.736 4.069 8.794 5.389 8.644C1.753-8.839 6.217-.706 0 0" style="fill:#000;fill-opacity:1;fill-rule:nonzero;stroke:none" transform="translate(2374.53 1305.65)"/><path d="M0 0c-3.367 10.646-4.055 21.981-8.278 32.383-3.605 8.875-10.027 16.289-17.06 22.624-14.926 13.444-34.8 21.334-53.81 26.972-25.439 7.543-52.442 6.783-78.691 7.458-11.891.305-23.597 2.355-33.401 9.437-9.514 6.872-14.566 18.251-24.667 24.667l.542-8.618c.221.223.444.444.666.667 2.56 2.559 2.028 9.181-2.473 9.181h-.667c-1.856 0-3.296-2.223-3.379-3.891-1.318-26.63 3.47-54.157 14.626-78.436 10.356-22.537 31.315-37.16 53.159-47.287 20.16-9.345 41.844-14.786 62.005-24.19 16.584-7.735 42.978-21.825 35.643-43.982-3.71-11.209-12.491-20.653-20.69-28.811-8.865-8.823-18.548-19.07-30.347-23.645-4.463-1.729-2.418-11.441 2.593-9.498 11.17 4.33 19.672 13.072 28.278 21.109 8.239 7.696 16.059 16.123 21.951 25.78 5.533 9.071 8.413 19.189 6.554 29.762-1.706 9.697-9.308 17.537-16.593 23.543-35.806 29.511-87.947 28.806-121.605 61.886-11.443 11.247-17.725 25.548-22.085 40.764-4.688 16.357-6.947 33.792-6.104 50.806l-3.379-3.891h.667l-2.473 9.181a139.99 139.99 0 0 0-.668-.667c-2.177-2.178-2.273-6.83.542-8.618 9.126-5.797 14.323-15.61 22.318-22.669 8.396-7.415 18.993-10.709 29.969-11.842 26.254-2.709 52.521-.191 78.538-5.92 19.186-4.226 38.659-12.118 54.491-23.825 7.588-5.612 14.069-12.651 18.322-21.11 5.006-9.958 5.121-21.888 8.455-32.427C-5.078-9.346 1.726-5.456 0 0" style="fill:#000;fill-opacity:1;fill-rule:nonzero;stroke:none" transform="translate(2150.525 1210.39)"/><path d="M0 0c-10.855-6.212-21.679-12.46-34.28-14.173-7.145-.972-14.523-.518-21.714-.543-8.246-.027-16.491-.04-24.736.046-31.21.325-61.8 3.372-91.953 11.688-28.474 7.852-55.709 19.616-82.634 31.612-27.521 12.262-54.547 25.349-83.785 33.06-14.721 3.883-29.667 6.868-44.502 10.274-15.157 3.48-30.198 7.311-45.551 9.87-28.033 4.67-55.901 3.131-83.928-.646-51.063-6.882-103.093-22.016-144.647-53.526-27.567-20.905-49.699-49.341-64.701-80.413-8.038-16.648-13.055-34.71-17.041-52.708-2.114-9.544-3.771-19.162-3.034-28.958.769-10.209 3.843-20.207 2.109-30.48-.967-5.729 8.634-4.265 9.42.39 2.524 14.951-3.72 29.55-1.757 44.516 2.057 15.696 6.507 31.04 11.09 46.151C-713.66-47.516-697.095-22.89-679-2.501c35.499 39.997 86.212 60.551 137.575 71.119 26.143 5.378 53.616 9.082 80.346 8.264 31.028-.949 61.251-10.137 91.367-16.794 15.071-3.332 30.152-6.768 44.827-11.6 14.498-4.773 28.382-11.356 42.303-17.57 26.861-11.992 53.603-24.329 81.394-34.061 34.249-11.994 69.153-18.114 105.391-19.289 18.692-.605 37.845-1.23 56.517-.099 15.688.949 29.222 8.153 42.573 15.793C8.646-3.676 5.448 3.117 0 0" style="fill:#000;fill-opacity:1;fill-rule:nonzero;stroke:none" transform="translate(2050.02 1086.209)"/><path d="M0 0c7.232-7.738 17.017-12.876 26.513-17.273 10.69-4.951 21.795-8.924 33.049-12.378 28.074-8.617 56.064-18.493 84.661-25.23 30.723-7.238 61.742-14.407 93.238-17.215 32.183-2.868 64.777-1.706 96.904 1.232 30.993 2.834 61.926 7.361 92.647 12.297 29.499 4.739 58.848 10.598 87.645 18.605 29.374 8.168 57.467 19.255 85.066 32.133 13.592 6.342 27.062 12.941 40.216 20.154 13.412 7.355 25.93 15.84 38.629 24.321 13.787 9.209 28.105 17.321 40.455 28.512 13.408 12.151 26.943 24.107 40.492 36.109 12.351 10.94 24.86 21.754 36.72 33.229 6.14 5.941 12.006 12.163 17.455 18.745 4.703 5.681 9.906 12.101 10.634 19.704.453 4.734-9.252 6.628-9.766 1.256-.623-6.514-6.426-12.418-10.398-17.218-4.723-5.705-9.883-11.043-15.149-16.245-10.254-10.132-21.217-19.524-31.984-29.098-11.408-10.145-23.138-19.922-34.488-30.13-5.596-5.033-10.791-10.5-16.595-15.298-5.777-4.774-12.054-8.924-18.35-12.971-12.45-8.004-24.588-16.511-37.139-24.343-12.969-8.092-26.516-15.233-40.215-21.995-27.539-13.593-55.627-25.745-84.954-34.942C467.138-46.274 405.723-55.001 345.3-61.716c-32.729-3.638-65.547-5.002-98.444-3.346-31.652 1.593-62.707 8.766-93.494 15.82-29.405 6.737-57.677 17.002-86.649 25.286-11.063 3.164-21.967 6.937-32.555 11.445-9.726 4.14-19.964 9.166-27.276 16.99C3.32 8.29-4.462 4.774 0 0" style="fill:#000;fill-opacity:1;fill-rule:nonzero;stroke:none" transform="translate(1309.56 916.6)"/><path d="M0 0c-.32-24.889 12.719-48.715 25.353-69.367 14.135-23.106 32.578-42.158 54.118-58.494 22.433-17.014 47.094-31.698 73.194-42.294 26.759-10.865 55.161-17.374 83.681-21.506 60.526-8.768 122.222-9.028 182.798-1.106 31.324 4.097 62.841 8.326 93.837 14.466 28.581 5.661 56.232 14.789 83.044 26.131 47.102 19.926 90.704 48.529 123.33 88.338 8.49 10.359 15.925 21.551 24.053 32.192 8.223 10.764 16.537 21.449 24.143 32.663 7.618 11.233 14.111 23.114 18.991 35.789 5.463 14.189 10.049 28.852 15.011 43.233 5.863 16.99 10.999 34.203 13.918 51.965 1.552 9.445 2.379 19.007 4.355 28.382.38 1.802.688 3.961 1.422 5.657.468 1.08 1.762 1.803 2.309 2.886 1.527 3.02 1.388 5.828.292 8.967-2.162 6.188-8.597.419-6.893-4.461-.321.919 1.399 2.232-.448.07-.778-.909-1.307-1.955-1.778-3.041-1.416-3.273-1.951-7.033-2.63-10.517-1.52-7.783-2.37-15.674-3.508-23.517-2.278-15.69-6.641-30.927-11.593-45.957-9.162-27.808-17.571-56.428-33.643-81.131-7.554-11.614-16.198-22.489-24.611-33.48-8.143-10.638-15.624-21.776-24.054-32.191-16.25-20.077-35.674-37.323-56.904-51.966-45.397-31.314-99.303-51.529-153.287-61.647-31.165-5.839-62.811-10.112-94.269-14.044-31.976-3.999-63.665-5.231-95.849-4.02-58.492 2.202-118.009 8.165-171.809 32.859-25.685 11.79-50.214 27.797-71.72 46.099-20.585 17.518-36.147 38.534-48.792 62.3C14.683-32.873 7.265-16.702 7.471-.656 7.55 5.497.081 6.281 0 0" style="fill:#000;fill-opacity:1;fill-rule:nonzero;stroke:none" transform="translate(1307.932 918.502)"/><path d="M0 0c.962-1.244.402-1.852.888-.306.411 1.31 1.314 2.487 2.097 3.593 1.802 2.542 4.228 4.632 6.674 6.53 3.296 2.557 11.098 7.358 13.746 1.211 2.279-5.291-3.238-12.642-7.765-14.777C12.75-5.112.763-5.257-.013-2.877l-4.865-5.46.105-.073c1.345-.938 3.74-.951 4.545.771.37.79.735 1.571 1.019 2.396 1.576 4.57-5.312 10.822-7.35 4.91a.706.706 0 0 1-.106-.418l4.546.772-.104.072c-3.821 2.662-5.857-2.415-4.865-5.46 3.103-9.517 17.959-10.884 26.048-7.815C29.04-9.357 34.241 4.785 30.105 14.386c-2.108 4.895-6.79 8.944-12.209 9.427-4.721.422-9.729-2.932-13.319-5.562C-2.967 12.725-11.439 2.147-4.434-6.91c1.366-1.766 4.188-1.94 5.436.011C2.441-4.65 1.479-1.912 0 0" style="fill:#000;fill-opacity:1;fill-rule:nonzero;stroke:none" transform="translate(1441.884 974.962)"/><path d="M0 0c.936-1.295.264-.666 1.797.644.946.806 2.036 1.448 3.092 2.093 2.776 1.699 4.439 2.644 7.519 1.502 2.791-1.034 4.861 1.309 4.765 4.072-.116 3.339-.555 6.779-1.48 9.994-.635 2.212-2.103 4.442-4.71 4.109-13.999-1.792-25.303-9.988-29.316-23.765-1.461-5.011 5.558-9.857 7.385-3.586C-7.779 5.939 2.493 11.28 13.068 12.633l-4.71 4.109a30.443 30.443 0 0 0 1.188-7.34l4.765 4.072c-3.504 1.297-5.482 1.965-8.958.464-3.045-1.315-5.879-2.883-8.41-5.042C-7.773 4.87-9.021-1.115-5.281-6.287-1.44-11.599 3.024-4.183 0 0" style="fill:#000;fill-opacity:1;fill-rule:nonzero;stroke:none" transform="translate(1452.308 972.65)"/><path d="M0 0a5.834 5.834 0 0 0-1.219.562l-.339-6.949c-1.258-.295-2.411-.094-3.459.6L-3.596.531l-.246-.054c-6.396-1.421-1.556-8.55 3.503-7.426l.246.054c3.538.786 3.976 4.092 1.422 6.319-1.531 1.333-4.43 2.051-6.39 1.615-4.385-.975-3.558-5.121-.338-6.949a5.857 5.857 0 0 1 1.218-.563C1.029-8.683 6.055-2.568 0 0" style="fill:#000;fill-opacity:1;fill-rule:nonzero;stroke:none" transform="translate(1444.424 975.41)"/><path d="M0 0c6.157 4.198 13.339 16.301 7.445 23.212-3.042 3.567-12.363.583-8.632-3.793C2.068 15.603-3.95 7.429-7.075 5.297c-1.96-1.336-1.811-3.944.004-5.303C-5.023-1.539-2.059-1.404 0 0" style="fill:#000;fill-opacity:1;fill-rule:nonzero;stroke:none" transform="translate(1474.538 986.191)"/><path d="M0 0c3.885-5.883 14.438 3.301 18.132 5.564 2.027 1.244 3.451 4.092 2.672 6.44-.788 2.377-3.401 2.493-5.264 1.351-2.059-1.261-4.026-2.666-6.074-3.946-.794-.496-1.957-1.183-2.587-1.475a11.135 11.135 0 0 0-1.344-.502c.466.148 1.19-.088 1.47-.512C4.081 11.349-2.64 3.998 0 0" style="fill:#000;fill-opacity:1;fill-rule:nonzero;stroke:none" transform="translate(1467.498 970.714)"/><path d="M0 0c-.09.003-.173.009-.262.024l.997-.252a.404.404 0 0 0-.108.042l.845-.557a.162.162 0 0 0-.061.058l.599-.816-.014.034.302-.982-.004.038.011-1.089.006.041-.273-1.138.015.044-.55-1.126a.878.878 0 0 0 .094.145l-.82-1.055c.05.056.101.107.156.157l-1.014-.871c.187.161.39.295.603.418l-1.097-.604c.21.114.424.215.653.286l-1.122-.329c.086.022.168.039.257.043 1.177.059 2.461.994 3.232 1.804.859.904 1.494 2.07 1.642 3.32.122 1.041-.129 2.143-.912 2.888-.856.814-1.835.822-2.931.767-.657-.033-1.356-.307-1.948-.613C-2.905.056-3.563-.393-4.56-1.315-5.842-2.503-6.575-4.37-6.396-6.097c.166-1.602 1.642-2.724 3.187-2.768 2.533-.073 4.835 1.66 5.69 4.029.369 1.021.454 2.21-.041 3.21C1.998-.73 1.02-.029 0 0" style="fill:#000;fill-opacity:1;fill-rule:nonzero;stroke:none" transform="translate(1541.938 1106.606)"/><path d="M0 0c1.666 1.542 4.237 1.839 6.664 2.324 2.165.435 3.794 2.606 2.671 4.735-1.202 2.276-4.146 3.002-6.497 2.531-3.78-.758-7.753-1.641-10.67-4.342C-12.085 1.311-3.46-3.204 0 0" style="fill:#000;fill-opacity:1;fill-rule:nonzero;stroke:none" transform="translate(1637.583 1112.883)"/><path d="M0 0c.745.115 1.485.198 2.239.229.27.006.538.002.807-.012 1.162-.042-.599.194.46-.06a5.33 5.33 0 0 0 .653-.22c.956-.359-.539.43.273-.177.812-.608-.369.606.272-.249.049-.065.594-1.117.29-.409 2.468-5.747 9.29.408 7.369 4.88-1.019 2.372-2.249 3.994-4.541 5.235-1.885 1.021-4.426.851-6.465.535-2.517-.39-4.179-2.402-4.531-4.914C-3.425 3.04-2.515-.391 0 0" style="fill:#000;fill-opacity:1;fill-rule:nonzero;stroke:none" transform="translate(1706.988 1087.298)"/><path d="M0 0v-2c0-2.13 1.342-4.979 3.826-4.941C6.358-6.903 7.5-4.015 7.5-1.885v2c0 2.13-1.342 4.98-3.826 4.942C1.142 5.019 0 2.13 0 0" style="fill:#000;fill-opacity:1;fill-rule:nonzero;stroke:none" transform="translate(1757.25 1040.116)"/><path d="M0 0c1.269-3.453 4.465-5.193 8.002-5.295 2.437-.07 4.886 2.301 5.406 4.557.237 1.021.108 2.145-.589 2.971-.744.882-1.744 1.052-2.829 1.083 1.233-.035.119.025-.203.107-.409.131-.336.101.223-.087-.244.104-.47.246-.694.387-.343.25-.294.198.152-.158a5.018 5.018 0 0 0-.854 1.023c.557-.84.138-.152.044.101-.865 2.356-3.789 2.283-5.643 1.277C1.044 4.897-.865 2.354 0 0" style="fill:#000;fill-opacity:1;fill-rule:nonzero;stroke:none" transform="translate(1754.67 995.83)"/><path d="M0 0c-.06.117-.109.238-.149.363L.158-.682a3.303 3.303 0 0 0-.106.538l.049-1.168c-.006.178.002.344.025.521l-.221-1.233c.037.172.084.33.148.494l-.5-1.239c.046.107.099.21.161.309l-.737-1.114c.136.205.284.384.458.557l-.89-.881c.144.127.292.242.451.352l-.989-.623c.111.072.226.138.346.197C.551-2.795 2.049-.24 1.641 2.289 1.28 4.523-.962 5.874-3.054 4.755-6.756 2.774-9.226-1.8-7.367-5.885c1.023-2.248 3.658-2.168 5.377-.798C-.131-5.199 1.037-2.281 0 0" style="fill:#000;fill-opacity:1;fill-rule:nonzero;stroke:none" transform="translate(1698.018 987.782)"/><path d="M0 0c-.079.08-.149.168-.21.263.214-.326.428-.653.643-.978a3.743 3.743 0 0 0-.24.483l.445-1.172C.178-.146-.112 1.131-.691 2.357c-.941 1.994-3.4 3.1-5.223 1.504-1.924-1.684-1.983-4.74-.961-6.906.076-.153.146-.309.21-.469l-.444 1.171c.656-1.73.927-3.574 2.209-5.012C-3.345-9.102-.937-9.059.395-7.06 1.737-5.045 1.638-1.838 0 0" style="fill:#000;fill-opacity:1;fill-rule:nonzero;stroke:none" transform="translate(1691.45 1042.518)"/><path d="M0 0c-1.011.953-1.854 1.547-3.22 1.937-1.751.5-3.619.047-5.23-.666-2.049-.908-3.994-3.511-3.252-5.84.781-2.451 3.674-2.351 5.588-1.503l.234.104-1.175-.433c.152.058.307.102.467.131l-1.159-.158c.232.032.446.041.681.032l-1.083.12c.292-.037.557-.103.835-.203l-.948.399c.366-.16.687-.357.991-.613l-.752.677.125-.117c.834-.786 1.591-1.216 2.782-1.196 1.259.02 2.482.536 3.467 1.301C-.665-5.265.138-4.206.47-2.993.709-2.117.74-.697 0 0" style="fill:#000;fill-opacity:1;fill-rule:nonzero;stroke:none" transform="translate(1610.95 1047.24)"/><path d="M0 0v1.334c0 2.521-3.053 3.275-5.017 2.881C-7.319 3.753-9.654 1.922-9.654-.6v-1.334c0-2.521 3.052-3.275 5.016-2.88C-2.335-4.353 0-2.521 0 0" style="fill:#000;fill-opacity:1;fill-rule:nonzero;stroke:none" transform="translate(1525.827 1051.807)"/><path d="M0 0c-3.334 0-2-2.666-1.334-6.666C0-19.333 13.333-32 22.666-39.333 48-61.333 83.333-76 116-78.666c23.333-2 52.666-2 74.666 5.333 12.667 4.667 44 20 43.334 36.667-15.334-14.667-50.667-3.334-68 2-19.334 5.333-56.667 20-56.667 44.666l1.333 2c0-.666 0 0-.666-.666 0-1.334 1.333-.667 1.333-.667z" style="fill:#000;fill-opacity:1;fill-rule:nonzero;stroke:none" transform="translate(1604.382 844.84)"/><path d="M0 0c.053.501.196.975.427 1.421L-2.994.163c33.499-36.774 84.681-51.596 131.705-61.858 57.17-12.478 115.251-13.711 173.16-5.55 17.607 2.481 35.038 5.802 52.129 10.74 16.817 4.859 33.225 11.055 49.585 17.245 15.165 5.739 30.358 11.767 44.072 20.528 5.071 3.239 9.461 7.261 14.078 11.084 2.248 1.86 6.9 4.525 7.703 7.595.247.943.022 1.794-.881 2.242l-.104.053c-2.131 1.058-4.758-3.132-2.342-4.332l.105-.052-.88 2.243c.313 1.198.393.669-.312.011-.635-.591-1.302-1.147-1.96-1.711-1.619-1.385-3.273-2.731-4.914-4.09-4.07-3.375-7.978-6.764-12.404-9.699-12.061-7.993-26.038-13.425-39.505-18.527-29.529-11.186-58.842-21.351-90.044-26.717-59.441-10.222-120.417-10.283-179.504 2.064C88.179-48.431 34.784-33.949.225 3.989c-1.009 1.108-2.963-.277-3.421-1.258-.393-.842-.713-1.667-.907-2.579C-4.781-3.043-.542-2.553 0 0" style="fill:#000;fill-opacity:1;fill-rule:nonzero;stroke:none" transform="translate(1377.05 886.096)"/><path d="M0 0c-1.746-6.406 3.788-13.412 7.33-18.169 5.649-7.59 12.416-14.407 19.303-20.866C45.058-56.313 67.222-69.63 90.335-79.61a227.097 227.097 0 0 1 41.164-13.257c15.246-3.35 30.834-4.931 46.292-6.957 15.573-2.042 30.971-5.144 46.56-7.091 15.312-1.913 30.725-2.906 46.155-3.029 30.814-.246 61.758 3.837 91.999 9.48 29.811 5.563 59.213 13.325 87.985 22.888 27.269 9.062 52.951 19.879 76.984 35.795 23.543 15.593 44.161 34.966 64.578 54.357 11.086 10.528 21.711 21.534 31.43 33.345 4.296 5.22 7.972 10.912 12.227 16.136 1.429 1.753 4.915 6.136.77 6.989-2.312.475-4.74-3.732-1.895-4.317-1.724.355-.891.822-2.302-.913a51.242 51.242 0 0 1-2.011-2.609c-1.906-2.681-3.802-5.362-5.807-7.978-4.844-6.322-10.052-12.358-15.438-18.221-9.796-10.664-20.363-20.598-31.005-30.406-21.394-19.722-42.996-38.252-68.272-52.92-25.509-14.804-54.162-23.962-82.319-32.308a642.357 642.357 0 0 0-91.363-19.99c-31.447-4.508-63.027-6.241-94.721-3.569-15.759 1.331-31.284 3.928-46.867 6.525-15.396 2.566-30.957 4.004-46.378 6.403C97.287-83.353 47.106-58.265 13.873-18.403 10.245-14.052 2.673-5.882 4.396.443 5.21 3.43.623 2.285 0 0" style="fill:#000;fill-opacity:1;fill-rule:nonzero;stroke:none" transform="translate(1353.468 891.95)"/><path d="M0 0c-2.146-6.265 1.908-13.698 4.621-19.144 4.3-8.628 9.753-16.714 15.312-24.57C33.652-63.102 52.461-78.142 72.99-89.872c25.024-14.298 53.518-22.467 81.197-29.893 29.734-7.978 60.125-13.552 90.771-16.492 61.141-5.866 123.803.574 183.472 14.514 57.246 13.372 113.624 34.041 156.945 75.14 13.094 12.421 25.357 25.12 39.61 36.276C639.059.687 653.592 11.504 665.722 24.71c10.848 11.811 19.415 25.521 27.745 39.154 3.858 6.315 7.194 11.99 9.152 19.162 1.609 5.894 2.268 13.77 6.508 18.482.677.752.917 1.619.458 2.536l-.371.74c-.33.66-1.335.72-1.944.61-1.175-.214-1.838-.554-2.809-1.259-2.517-1.83-.364-4.902 2.162-3.065.149.075.3.149.45.223l-1.944.609.37-.741.458 2.536c-6.678-7.421-6.645-19.218-10.243-28.165-2.485-6.176-7.123-12.071-10.637-17.72-3.862-6.209-7.889-12.312-12.191-18.225-18.332-25.191-45.102-40.608-67.65-61.392-11.284-10.402-21.467-21.934-33.271-31.78-11.23-9.367-23.097-17.703-35.783-24.983-26.767-15.36-56.234-25.34-85.863-33.543-59.821-16.562-123.278-24.66-185.335-21.339-31.638 1.693-63.044 6.705-93.844 14.044-29.029 6.915-59.112 15.094-85.93 28.407C63.196-80.071 41.476-64.638 26.8-44.687c-5.282 7.181-10.276 14.592-14.762 22.297C8.852-16.919 2.103-6.889 4.417-.129 5.428 2.821.778 2.271 0 0" style="fill:#000;fill-opacity:1;fill-rule:nonzero;stroke:none" transform="translate(1342.124 897.57)"/><path d="M0 0c-2.417-7.532 2.343-16.241 5.773-22.674 4.393-8.239 9.915-15.776 14.705-23.772 13.657-22.801 34.008-40.323 55.526-55.493 22.33-15.744 46.213-27.913 72.22-36.357 26.397-8.57 53.946-13.333 81.531-15.935 59.548-5.62 120.682-1.864 179.731 6.912 30.446 4.524 60.391 11.203 90.082 19.257 26.022 7.057 52.309 14.567 76.136 27.467 11.077 5.997 21.018 13.864 31.239 21.169 11.06 7.905 22.091 15.847 32.782 24.248 10.535 8.28 20.648 17.109 29.904 26.807 9.091 9.524 16.892 20.259 24.879 30.702 16.874 22.063 33 45.242 42.398 71.59 4.678 13.11 7.049 27.039 12.383 39.913 1.314 3.169 2.278 6.512 3.369 9.761a271.677 271.677 0 0 0 2.143 6.16c.281.773.582 1.539.887 2.303.164.405 1.155 1.853.514 1.308l-1.987-.453c1.027-.697 1.91-.766 3.156-.793 2.395-.052 3.746 4.742 1.098 4.801a2.638 2.638 0 0 0-2.176.539c-.609.414-1.523-.058-1.987-.453-1.779-1.515-2.477-4.486-3.236-6.574-1.5-4.126-2.82-8.316-4.252-12.465-4.114-11.929-7.606-23.94-11.235-36.03-8.763-29.195-26.568-54.35-44.882-78.293-8.74-11.428-17.369-22.893-27.567-33.078-9.94-9.925-20.894-18.806-32.044-27.322-11.194-8.549-22.732-16.64-34.174-24.849-11.302-8.109-22.523-15.381-35.226-21.145-25.454-11.55-53.107-18.488-80.104-25.412-30.465-7.814-61.487-13.383-92.689-17.264-59.229-7.367-120.563-9.718-179.83-1.474-24.343 3.385-48.393 9.011-71.455 17.558-23.082 8.555-44.15 20.737-64.017 35.181-19.087 13.877-37.621 30.257-49.602 50.854-4.048 6.961-8.793 13.498-12.851 20.46C7.681-16.907 1.528-7.503 3.841-.293 4.847 2.841.852 2.655 0 0" style="fill:#000;fill-opacity:1;fill-rule:nonzero;stroke:none" transform="translate(1332.412 899.651)"/><path d="M0 0c.485-.021 1.366-.944 1.023-.355C.498.547.849-.083.809.038.614.629.483 1.24.363 1.849c-.623 3.135-.665 6.417-.635 9.338.111 10.784 1.595 21.582 3.44 32.19 4.779 27.485 12.934 55.554 27.054 79.777 11.942 20.487 30.463 39.826 56.199 35.897 27.113-4.141 39.818-30.184 50.021-52.738 5.835-12.9 10.99-26.099 17.029-38.908 4.899-10.389 10.483-21.124 18.982-29.06 22.07-20.609 48.584 4.991 62.933 21.957 7.477 8.841 12.051 19.444 16.65 29.978 6.436 14.74 12.444 29.663 18.838 44.421 7.138 16.477 14.672 32.813 23.361 48.537 7.462 13.503 15.994 27.08 27.181 37.833 7.936 7.627 17.777 13.579 29.129 11.452 10.76-2.015 15.403-13.639 17.873-22.965 3.036-11.465 4.282-23.411 9.162-34.333 5.235-11.718 15.584-18.308 28.181-19.651 18.633-1.984 39.109 4.115 54.339 14.719 16.795 11.691 29.346 28.494 40.494 45.394 11.748 17.809 22.01 36.564 34.172 54.105 13.107 18.903 29.681 34.058 49.546 45.716 29.739 17.453 65.367 25.738 99.645 20.732 8.347-1.219 16.614-2.536 24.688-5.047 8.093-2.516 15.906-5.874 23.796-8.948 15.667-6.104 31.757-10.184 48.597-7.044 2.37.442 4.884 1.981 5.248 4.59.324 2.327-1.937 3.95-4.122 3.543-25.999-4.85-48.244 9.923-72.341 16.77-24.136 6.858-50.407 7.509-74.938 2.605-25.073-5.014-49.052-15.713-69.702-30.761-17.802-12.972-31.518-28.902-43.515-47.233-11.766-17.981-22.144-36.835-34.458-54.463-11.233-16.079-24.481-31.696-42.515-40.268-8.804-4.184-19.18-5.941-28.844-6.446-6.484-.339-13.585.537-19.208 4.018-9.715 6.013-12.836 17.93-15.168 28.368-2.472 11.061-3.954 23.099-10.19 32.837-6.425 10.034-18.022 13.99-29.511 11.936-13.149-2.35-23.695-11.429-32.369-21.052-10.944-12.141-19.318-26.578-26.973-40.935-15.803-29.636-27.455-61.147-41.108-91.769-5.341-11.98-10.737-21.03-19.897-30.691-7.453-7.86-18.37-18.353-29.592-17.392-9.064.778-15.784 9.272-20.475 16.488-7.144 10.987-12.2 23.313-17.327 35.323-5.6 13.118-11.054 26.341-17.906 38.872-5.909 10.809-13.211 21.654-23.383 28.883-21.647 15.383-50.315 10.627-69.41-6.13-20.918-18.356-32.548-46.499-40.536-72.497C-3.148 60.444-7.425 40.372-9.13 20.181c-.434-5.15-3.76-27.879 5.665-28.312C-.964-8.246 1.633-6.99 2.656-4.59 3.525-2.55 2.382-.109 0 0" style="fill:#000;fill-opacity:1;fill-rule:nonzero;stroke:none" transform="translate(323.065 985.57)"/><path d="M0 0c-1.247 10.25-4.299 19.749-10.915 27.811-5.9 7.19-14.501 11.817-22.858 15.521-21.558 9.552-44.618 16.059-68.211 17.428-45.806 2.659-88.882-16.57-119.12-50.731-15.724-17.764-27.388-38.807-37.705-60.041-8.555-17.612-17.299-33.784-36.081-41.957-11.765-5.12-25.52-7.338-38.281-7.322-10.756.013-21.415 1.598-32.184 1.171-21.966-.869-42.054-13.495-58.262-27.481-28.059-24.213-44.791-58.323-71.445-83.802-13.798-13.189-30.399-22.429-48.984-26.853-18.43-4.386-37.138-3.24-55.849-2.03-18.146 1.174-39.093 3.612-55.871-5.073-19.834-10.268-20.867-35.482-18.441-54.894.81-6.471 8.253-4.109 7.541 1.587-1.884 15.066-2.689 34.477 12.081 43.475 12.353 7.526 29.196 6.316 43.013 5.623 17.44-.876 34.882-2.79 52.338-1.106 19.888 1.918 39.003 8.809 55.214 20.522 29.843 21.562 47.001 55.444 71.577 82.081 13.99 15.166 31.377 29.063 51.301 35.336 10.864 3.42 22.003 2.98 33.204 2.186 12.076-.855 23.943-.913 35.856 1.552 11.01 2.279 21.952 5.811 31.191 12.368 7.467 5.297 13.26 12.399 18.038 20.14 5.222 8.461 9.222 17.65 13.639 26.539 5.352 10.768 11.446 21.208 18.005 31.285 25.575 39.297 66.418 65.232 113.607 67.627 24.392 1.238 48.415-4.426 71.051-13.066 9.101-3.474 18.582-7.222 26.127-13.546C-12.538 17.74-8.762 8.449-7.539-1.586-6.751-8.063.694-5.696 0 0" style="fill:#000;fill-opacity:1;fill-rule:nonzero;stroke:none" transform="translate(2361.77 1925.63)"/><path d="M0 0c-5.247 11.185-3.235 25.892-1.249 37.666C.31 46.914 3.235 55.999 8.788 63.645c9.207 12.676 24.941 13.674 39.084 10.749 9.221-1.908 18.066-5.483 26.594-9.405 12.815-5.892 25.244-11.962 38.838-15.947 22.994-6.74 46.57-7.352 70.009-2.654 24.232 4.856 47.346 14.468 70.61 22.551 13.545 4.707 27.252 9.572 41.365 12.248 12.556 2.381 25.52 2.521 38.194 1.089 24.055-2.714 46.941-11.223 69.937-18.306 24.208-7.456 48.867-13.005 74.347-12.25 20.002.592 39.815 5.346 58.991 10.739 22.211 6.245 44.003 13.92 65.797 21.465 21.576 7.471 43.17 14.974 65.185 21.071 18.217 5.045 37.088 9.401 56.095 9.241 5.94-.049 11.833-.798 17.571-2.344 6.068-1.635 7.281 5.779 1.348 7.379-16.297 4.393-33.771 2.564-50.156-.333-21.087-3.729-41.67-10.191-61.974-16.879-42.74-14.079-84.995-31.619-129.394-39.899-22.773-4.247-45.461-3.4-68.078 1.507-23.797 5.162-46.552 14.154-70.054 20.416-24.015 6.398-48.652 8.736-73.203 4.08-14.086-2.672-27.827-7.796-41.339-12.49-12.226-4.248-24.359-8.76-36.621-12.903-21.991-7.429-44.472-13.097-67.855-11.802-12.979.719-25.784 3.961-37.973 8.342-12.225 4.394-23.524 10.777-35.509 15.712-15.338 6.315-33.143 11.153-49.66 6.886C4.587 77.685-4.672 63.717-9.114 48.267c-2.343-8.15-3.262-16.682-3.726-25.121-.468-8.515.002-17.508 3.666-25.318C-7.169-6.446 2.469-5.261 0 0" style="fill:#000;fill-opacity:1;fill-rule:nonzero;stroke:none" transform="translate(1982.587 422.59)"/><path d="M0 0c-6.594 37.232-29.812 68.261-53.638 96.489-25.653 30.392-53.897 59.428-72.736 94.821-19.374 36.397-28.183 83.258-12.48 122.617 13.761 34.493 49.203 47.708 83.16 53.643 19.254 3.365 38.792 4.871 58.248 6.529 24.428 2.082 47.321 7.396 69.729 17.496 45.148 20.35 81.853 55.387 119.315 86.884 20.925 17.593 43.116 33.119 65.326 49.018 24.067 17.227 47.993 34.654 72.39 51.415 47.58 32.688 97.439 62.845 152.121 82.074l1.637.568c5.873 2.039 3.586 9.182-2.32 7.133-54.524-18.926-104.331-48.424-151.866-80.756-24.164-16.434-47.811-33.615-71.544-50.659-22.522-16.174-45.396-31.687-66.774-49.377-38.043-31.481-74.188-66.693-119.108-88.403-22.213-10.736-45.354-15.712-69.793-17.794-19.452-1.657-38.942-3.261-58.19-6.624-34.279-5.991-69.984-19.01-87.5-51.328-19.783-36.502-14.351-84.602 1.405-121.497 15.749-36.881 42.894-67.219 68.863-97.167 24.478-28.228 50.153-57.791 61.018-94.299 1.356-4.554 2.399-9.197 3.227-13.875C-8.656-7.915.877-4.953 0 0" style="fill:#000;fill-opacity:1;fill-rule:nonzero;stroke:none" transform="translate(386.088 1916.384)"/><path d="M0 0c.279.304 1.971 1.741 1.056 1.085.307.221.637.408.966.593 1.111.627-1.032-.406.156.053.821.318 1.54.431 3.318.269 3.206-.293 7.629-2.296 11.08-4.233C28.101-8.701 38.187-17.868 47.83-26.794c25.272-23.392 48.32-49.06 73.406-72.646 10.36-9.74 21.083-19.428 33.075-27.141 4.403-2.832 9.121-5.36 14.103-7.006 7.25-2.395 15.417-2.014 22.919-1.636 21.881 1.103 42.728 9.419 62.522 18.185 18.62 8.246 37.304 17.928 57.576 21.342 12.525 2.109 24.921.743 36.626-4.196 13.056-5.508 22.377-16.676 31.549-27.042 9.593-10.838 19.609-21.148 32.175-28.555 7.985-4.706 16.688-7.407 25.428-10.321l15-5c3.21-1.069 6.342-.846 9.69-.846 2.413 0 5.167 1.012 6.021 3.515.756 2.215-1.152 4.258-3.378 4.258-6.723 0-12.306 2.041-18.644 4.153-7.791 2.597-15.812 4.801-23.181 8.468-10.639 5.294-19.59 13.07-27.684 21.66-7.361 7.814-14.078 16.205-21.896 23.586-7.888 7.448-16.747 12.738-27.102 16.026-40.392 12.824-80.081-15.5-116.349-28.906-10.249-3.788-20.769-6.675-31.623-8.039-7.751-.974-17.29-1.522-24.212.522-10.869 3.208-20.489 11.399-29.023 18.509-26.045 21.696-48.79 47.256-72.846 71.062C57.957-22.962 43.54-8.513 26.832 2.166 17.215 8.313 2.464 14.651-6.893 4.461-11.311-.35-3.531-3.845 0 0" style="fill:#000;fill-opacity:1;fill-rule:nonzero;stroke:none" transform="translate(2344.78 2645.94)"/><path d="M0 0c-29.276-.671-20.155-57.097 7.382-53.288 12.407 1.715 24.812 16.537 25.309 28.88C33.13-13.512 24.967-5.257 16.336.089 6.88 5.943-7.014 10.999-18.265 8.343c-5.261-1.242-9.11-4.953-9.907-10.389-.904-6.165 4.118-12.207 7.916-16.406 3.594-3.974 9.582 3.957 6.367 7.512-1.791 1.98-3.571 4.039-4.885 6.375-1.058 1.88-1.358 3.149-1.296 3.849-.055-.623.228-.093-.474-1.031-.325-.434.63.424.078.115 1.316.736 2.303.864 4.369 1.049 9.263.83 19.773-3.366 27.644-8.107 7.317-4.409 15.131-12.209 12.371-20.883-1.653-5.198-7.29-10.671-12.252-13.186C6.134-45.563.714-43.252-3.142-38.91c-6.344 7.144-12.55 29.177 2.33 29.517C3.904-9.284 5.825.134 0 0" style="fill:#000;fill-opacity:1;fill-rule:nonzero;stroke:none" transform="translate(1485.072 439.534)"/><path d="M0 0c2.615 2.732 5.073 10.714-.561 11.771-2.544.478-4.977-1.762-6.431-3.54-2.729-3.335-4.414-7.469-6.015-11.418-.48-1.185-.436-3.396.616-4.322 4.656-4.094 9.563-8.132 15.086-11.012 3.377-1.763 7.188-3.11 11.046-2.664 7.493.868 10.724 9.049 10.822 15.646.106 7.083-1.758 14.29-4.795 20.663-2.157 4.525-6.11 11.467-11.889 11.744C-2.289 27.356-5.255 13.02-6.583 5.584c-.393-2.194 1.34-4.414 3.635-4.041 2.626.427 4.046 2.972 4.47 5.35.062.342.124.684.189 1.027.218 1.16-.216-1.047.018.081.126.614.267 1.227.413 1.836.279 1.17.605 2.328.976 3.473.151.461.315.919.486 1.376.079.212.164.424.25.635.341.851-.545-1.252-.182-.433.335.754.722 1.484 1.16 2.183.588.937-.907-1.214-.102-.17.18.233.374.453.577.667.242.258-1.148-.99-.22-.234.828.675-.001.04-.198-.069.195.108.402.196.611.275.264.1-1.307-.31-.319-.129.384.071 1.3.05-.299.047.246.001.492-.029.734-.07.214-.037.424-.095.632-.159-1.48.456-.581.196-.223.03a8.106 8.106 0 0 0 1.365-.834c.671-.495-.869.75-.062.041.213-.187.417-.384.617-.584.468-.466.899-.969 1.311-1.485a23.632 23.632 0 0 0 1.45-2.04c.389-.601-.547.892-.169.277.22-.36.43-.725.636-1.092a41.189 41.189 0 0 0 2.075-4.301 48.847 48.847 0 0 0 1.686-4.723c.103-.341.504-1.797.099-.31a47.908 47.908 0 0 0 .841-3.704c.29-1.563.485-3.143.572-4.73.011-.181.017-.363.024-.545.029-.771-.021 1.22-.012.453.005-.351-.002-.701-.012-1.051a20.842 20.842 0 0 0-.177-2.161c-.06-.451-.323-1.76.058.142a13.827 13.827 0 0 0-.211-.883c-.075-.283-.165-.56-.261-.835-.464-1.345.491 1.031.096.199a8.586 8.586 0 0 0-.383-.706c-.499-.841.964 1.289.244.354a6.756 6.756 0 0 0-.502-.567c1.353 1.389.566.524.147.217-.879-.647 1.039.561.251.147a6.098 6.098 0 0 0-.709-.308c-.148-.054 1.197.296.136.068a7.56 7.56 0 0 0-.994-.134c-.877-.069 1.107-.046-.055.002-.336.015-.669.053-1.002.098-.817.109-1.62.316-2.407.559-.637.196.954-.344-.055.026-.286.104-.567.218-.849.334a29.39 29.39 0 0 0-1.796.823c-1.475.727-2.889 1.575-4.27 2.465C-.062-5.102-2.797-2.835-6.004-.015l.616-4.322c.886 2.186 1.905 4.321 3.143 6.33.728 1.182-.621-.828.11.165.239.325.505.631.78.928-.946-1.024-.526-.485-.219-.243.384.267.201.161-.548-.32.39.171.175.114-.644-.173-.406-.11-1.505.216-1.932.686-.561.617-.388.633-.604 1.425.227-.831.046 1.164.021.498-.015-.393-.235-1.062.145.612-.101-.448-.549-1.274.224.41-.58-1.265.864.887-.149-.17C-6.608 4.193-7.312.979-5.725-.842-4.016-2.801-1.444-1.509 0 0" style="fill:#000;fill-opacity:1;fill-rule:nonzero;stroke:none" transform="translate(1533.863 505.267)"/><path d="M0 0c-3.332-4.108-7.348-9.73-6.455-15.378.731-4.63 4.719-7.021 8.882-8.192 8.433-2.372 19.818-.318 27.253 4.159 5.217 3.142 9.731 8.862 4.938 14.48-2.27 2.662-5.999 4.227-9.188 5.429-6.353 2.395-13.063 3.806-19.732 4.978-3.242.57-6.691-1.814-6.774-5.165.04 1.602.048.768-.02.365-.108-.422-.098-.415.029.019.538.806 1.293 1.315 2.265 1.528-2.782-.204-5.678-2.227-5.607-5.246.097-4.123 1.249-8.731 4.211-11.79 3.33-3.442 11.515 2.175 7.779 6.035-.111.116-.214.24-.316.363-.231.295-.214.271.051-.068-.254.369-.468.763-.683 1.157C5.485-5.229 5.182-2.929 5.126-.568L-.481-5.814c4.827.353 8.815 3.588 8.94 8.58L1.685-2.399C9.724-3.813 17.787-5.107 24.709-9.19c1.17-.69-.064.113.687-.452.362-.271.701-.57 1.026-.883.264-.254 1.112-1.374.277-.21.225-.315.404-.659.551-1.015.333-.808-.164 1.045-.033-.025.13-1.067.152.872.02.047-.169-1.058.116.19.066.074-.538-1.234.532.62.008-.079a7.443 7.443 0 0 0-.672-.758c1.309 1.326.307.312-.065.019-.313-.246-.644-.47-.977-.689 1.681 1.101.088.078-.355-.156a25.397 25.397 0 0 0-2.57-1.155c-.906-.357 1.248.451.322.12a37.521 37.521 0 0 0-2.453-.765 40.464 40.464 0 0 0-3.114-.719c-.379-.073-2.267-.364-.624-.124a41.951 41.951 0 0 0-1.873-.224 36.92 36.92 0 0 0-3.172-.167 31.7 31.7 0 0 0-1.542.026c-.3.011-1.238.08.164-.022-.327.024-.652.058-.978.094-.926.103-1.844.273-2.748.501-1.329.335.553-.234-.407.114-.384.139-.757.306-1.124.485a9.299 9.299 0 0 0-1.007.578c1.186-.768.112-.038-.161.214-.27.249-1.05 1.276-.211.116-.24.333-.428.699-.591 1.075-.473 1.096.102-.677-.072.247a6.62 6.62 0 0 0-.096 1.167c-.008.784-.088-.991-.009-.185.022.222.06.444.098.665.098.566.264 1.12.446 1.666-.416-1.248.25.498.395.804.278.584.597 1.148.923 1.705.179.305.37.602.559.901-.593-.931.11.15.2.278.563.8 1.17 1.569 1.786 2.33C8.759-1.895 8.987.712 6.734 1.805 4.509 2.884 1.498 1.847 0 0" style="fill:#000;fill-opacity:1;fill-rule:nonzero;stroke:none" transform="translate(1437.642 546.634)"/><path d="M0 0c-5.01-5.821-16.707-19.247-6.462-25.927 7.596-4.952 18.832-3.119 27.393-3.09 6.276.022 6.25 7.135.07 7.5-1.508.089-3.793 4.094-4.587 5.219-1.974 2.795-3.793 5.675-6.288 8.05C4.229-2.631-3.622-3.939-9.21-9.249c-4.53-4.302 3.488-8.725 7.02-5.369 1.263 1.198 2.584 3.257 4.108 2.115 2.235-1.675 3.778-4.53 5.335-6.793 3.433-4.984 7.258-9.342 13.678-9.721l.07 7.5c-6.157-.021-13.667-1.319-19.624.628-6.581 2.153 5.395 14.9 7.221 17.022C12.353.495 3.06 3.555 0 0" style="fill:#000;fill-opacity:1;fill-rule:nonzero;stroke:none" transform="translate(1500.367 626.771)"/><path d="M0 0c-4.435-12.288 3.913-25.574 14.342-31.953 4.777-2.922 10.795-3.675 15.726-.723 6.438 3.854 8.181 11.651 8.652 18.595.802 11.81-7.575 24.001-19.792 25.195C3.555 12.616-3.643-2.356-3.837-15.518c-.085-5.741 8.972-2.009 9.041 2.672.102 6.929 2.072 16.613 10.965 15.33C24.031 1.351 29-6.343 29.652-13.748c.308-3.496.115-9.538-2.765-12.039-1.812-1.574-6.478 1.552-7.876 2.476C13.173-19.447 5.303-9.261 8.033-1.697 10.244 4.429 1.777 4.924 0 0" style="fill:#000;fill-opacity:1;fill-rule:nonzero;stroke:none" transform="translate(1283.983 675.687)"/><path d="M0 0c-6.571.069-11.2.92-14.965-5.498-4.52-7.707-7.778-17.347-6.953-26.372C-20.676-45.477-8.09-50.745 3.959-47.434 16.123-44.09 25.882-33.386 24.56-20.267 23.635-11.091 17.934-.403 9.423 3.745.787 7.954-8.854 4.518-16.442-.293c-2.229-1.414-5.677-3.144-6.586-5.77-.613-1.767-.308-4.036-.308-5.89 0-2.285 1.761-4.682 4.141-4.682h13.334c4.957 0 4.228 9.968-.807 9.968H-20l4.141-4.682v3.334l-1.504-4.453c5.771 4.512 13.233 9.135 20.91 8.015 7.796-1.139 11.948-9.312 13.531-16.239 1.868-8.169-7.465-14.412-13.889-16.69-5.536-1.963-16.185-2.279-17.533 5.373-1.14 6.473 1.98 13.46 4.797 19.078C-7.209-8.269-4.021-9.917.805-9.968 5.753-10.02 5.034-.053 0 0" style="fill:#000;fill-opacity:1;fill-rule:nonzero;stroke:none" transform="translate(1887.598 1906.489)"/><path d="M0 0c-1.04-5.294-3.319-13.676 3.427-15.93 2.615-.875 6.09.189 8.622.814 5.347 1.318 10.589 3.107 15.88 4.629 2.445.704 6.162 4.812 3.615 7.349-5.166 5.15-10.97 10.413-17.497 13.745-3.917 2-8.369 2.506-11.907-.561C-2.367 6.14-1.106-.359.097-5.427c1.207-5.077 9.727.113 8.627 4.749-.418 1.757-.965 3.812-.788 5.641.076.79.081.564-.252.057-.623-.794-1.429-1.25-2.418-1.369.476.017.536.03.177.04 2.8-.295 5.541-2.508 7.748-4.077 3.843-2.729 7.414-5.923 10.751-9.248l3.616 7.349C21.367-4.066 14.7-7.074 8.221-7.526c-.777-.054-.278-.484-.372.544-.231 2.489.498 5.127.971 7.544C10.025 6.698.931 4.743 0 0" style="fill:#000;fill-opacity:1;fill-rule:nonzero;stroke:none" transform="translate(1916.923 1981.224)"/><path d="M0 0a35.344 35.344 0 0 1-8.737-1.331c-2.64-.738-5.143-1.921-7.93-2.002-2.771-.081-5.768-1.287-5.75-4.481.057-9.943 1.672-21.585 10.47-27.676 6.456-4.47 15.02-2.465 20.753 2.073 5.39 4.268 7.64 11.944 5.607 18.449C10.983-3.995-.312 1.945-10.31 5.808a77.61 77.61 0 0 1-1.787.654c-3.007 1.081-6.976-.966-6.986-4.276.01-.549-.001-1.099-.032-1.647-.129-2.328-.873-.788 1.113-.596-2.694-.26-6.296-3.676-3.47-6.2 1.932-1.724 4.06-2.717 6.45-3.653 2.313-.906 4.984-1.317 6.884-3.013 3.5-3.125 12.302 1.142 8.008 4.976-1.932 1.725-4.059 2.717-6.449 3.653-2.314.906-4.984 1.317-6.885 3.014l-3.47-6.2c6.408.619 7.734 5.574 7.749 11.09l-6.986-4.277C-8.209-3.528.826-7.92 4.38-16.133c.924-2.136 1.057-4.682.575-6.944-.501-2.347-1.458-3.813-3.13-5.422a14.74 14.74 0 0 0-.511-.457c-.872-.761.778.563-.159-.107a13.498 13.498 0 0 0-1.437-.875c1.221.662-.374-.129-.702-.246-1.221-.434.753.044-.94-.207-1.445-.215.833-.076-.629-.031-.219.01-.438.027-.657.051-1.143.107 1.054-.228-.075.024-.297.067-1.914.701-.853.235-.327.144-1.901 1.124-1.292.673-6.404 4.736-7.046 15.434-7.089 23.049l-5.75-4.481c3.04.089 5.809.513 8.738 1.331 2.639.739 5.142 1.922 7.929 2.003 2.266.066 5.165.872 5.715 3.468C4.604-1.749 2.123.062 0 0" style="fill:#000;fill-opacity:1;fill-rule:nonzero;stroke:none" transform="translate(1872.134 2058.606)"/><path d="M0 0c-5.003 4.253-12.453 3.807-18.62 3.814-2.132.002-3.743-2.035-4.563-3.747-6.654-13.909-7.096-28.618-3.553-43.442.434-1.823 2.626-2.496 4.215-1.867 7.99 3.164 16.536 7.269 20.35 15.451 2.53 5.427.317 11.317-3.623 15.328-4.456 4.535-10.296 7.412-16.184 9.62-4.07 1.526-10.08 3.578-14.374 1.76-4.384-1.857-5.219-11.246.498-8.825-.153-.065 1.061.187 2.104.064 2.001-.238 3.967-.79 5.887-1.38 4.353-1.336 8.47-3.364 12.226-5.931 2.699-1.845 6.059-4.619 6.194-8.15.165-4.315-10.782-8.006-13.576-9.112l4.216-1.866c-3.008 12.592-2.523 24.775 3.115 36.557a18309.66 18309.66 0 0 1-4.563-3.746c4.892-.006 10.747.517 14.712-2.853C-1.79-11.513 3.835-3.261 0 0" style="fill:#000;fill-opacity:1;fill-rule:nonzero;stroke:none" transform="translate(2007.436 2185.667)"/><path d="M0 0c.28-7.765.812-15.729 2.873-23.254 1.095-3.997 2.813-8.635 6.317-11.167 7.08-5.115 15.075 2.501 18.919 8.054C33.634-18.388 36.96-8.923 38.231.659c.987 7.437.308 17.574-6.871 21.911-7.061 4.266-15.789 1.63-22.839-1.242-2.519-1.026-4.958-2.247-7.348-3.541-3.852-2.085-7.84-3.991-7.84-8.96 0-1.815-.015-3.206.887-4.878C-4.885 2.288-3.341.926-1.528.39.161-.11 1.975.284 3.646.643c1.878.403 3.31.252 5.11-.566 4.328-1.967 9.263 6.601 4.349 8.834-2.722 1.237-5.403 1.273-8.299.776-.914-.157-1.749-.377-2.176-.396.568.025-.405.203-.088.001-.589.375-.881 1.143-1.196 1.728.173-.677.344-1.354.516-2.032v3.333A5551.716 5551.716 0 0 1-1.397 7.18c3.481 2.109 7.052 4.063 10.781 5.702.38.167.763.326 1.147.486-.916-.381.291.106.398.147.701.268 1.411.512 2.124.747 1.376.453 2.779.82 4.2 1.103.297.059.595.109.893.158 1.011.168-.922-.111.07.007a21.15 21.15 0 0 0 1.631.124c.507.023 1.015.015 1.523-.006.359-.014 2.173-.265.852-.047.844-.14 1.669-.379 2.465-.691.188-.074.372-.158.554-.242.698-.319-.858.477-.193.109a10.119 10.119 0 0 0 1.998-1.482c.902-.846-.385.511.224-.224.535-.647.977-1.368 1.364-2.113.092-.176.176-.357.26-.538.327-.703-.373.931-.082.204.153-.385.284-.778.407-1.173.281-.896.474-1.819.626-2.745.036-.223.066-.446.095-.669.115-.851-.101 1.033-.016.171.046-.466.073-.934.095-1.402.05-1.056.033-2.114-.016-3.168a41.813 41.813 0 0 0-.268-3.043c-.115-.951.157 1.079.02.126-.038-.26-.08-.519-.121-.779a53.725 53.725 0 0 0-.333-1.826 57.937 57.937 0 0 0-1.722-6.531 63.356 63.356 0 0 0-.523-1.54c-.41-1.161.355.9-.224-.596a58.958 58.958 0 0 0-1.349-3.184 50.93 50.93 0 0 0-2.969-5.574c.997 1.619.056.108-.192-.259a34.809 34.809 0 0 0-.792-1.12 29.027 29.027 0 0 0-1.763-2.179c-.796-.892 1.004.995-.049-.049a19.19 19.19 0 0 0-.84-.776 15.373 15.373 0 0 0-.846-.682c-.776-.59 1.184.72-.097-.045a9.46 9.46 0 0 0-.846-.444c-.884-.417 1.24.422.1.06a6.304 6.304 0 0 0-.836-.197c1.601.283.433.066-.024.077-1.07.025.9-.206.069-.029-.273.058-.538.15-.797.252-1.016.397.738-.464-.012-.001a6.79 6.79 0 0 0-.883.67c-.265.23-1.101 1.192-.176.124-.253.292-.481.605-.703.922-.561.803-1.015 1.679-1.428 2.566-.472 1.02.161-.426-.112.254-.139.348-.265.7-.391 1.052a37.674 37.674 0 0 0-.732 2.346c-.529 1.878-.917 3.794-1.249 5.715-.883 5.086-1.191 9.965-1.386 15.373C8.304 8.575-.174 4.846 0 0" style="fill:#000;fill-opacity:1;fill-rule:nonzero;stroke:none" transform="translate(1733.735 2430.344)"/><path d="M0 0c-2.919 2.557-6.343 5.412-10.469 4.896-4.216-.527-6.052-5.594-6.255-9.192-.5-8.898 4.695-18.728 9.147-26.066 5.029-8.29 12.179-17.361 22.181-19.45 12.567-2.624 20.785 11.581 24.648 21.157 3.948 9.783 3.216 19.02-2.95 27.706-5.75 8.1-14.387 14.09-23.406 18.041-7.455 3.267-17.062 5.843-24.939 2.549-8.932-3.735-10.345-13.89-8.179-22.283 1.565-6.059 9.042-.592 7.83 4.103-.652 2.524-1.199 5.08-.5 7.621-.095-.346.543.745.465.668.445.433 1.244.915 2.154 1.203C-4.972 12.633 1.273 10.851 6.28 9 17.82 4.734 32.063-4.766 33.915-17.974c.832-5.94-3.556-13.356-7.006-17.892-2.514-3.306-5.54-4.996-9.49-4.463C8.699-39.154 1.88-28.45-2.074-21.405-5.153-15.921-7.95-9.814-8.708-3.508c.078-.646.283 2.432.018 1.2-.07-.319-1.26-2.041-2.076-2.219-1.042-.228-.284-.035.188-.119-.972.174.573-.291.874-.442 1.406-.704 2.575-1.725 3.757-2.76C-1.894-11.397 3.593-3.146 0 0" style="fill:#000;fill-opacity:1;fill-rule:nonzero;stroke:none" transform="translate(1977.64 2545.428)"/><path d="M0 0c-2.587 1.061-4.83 1.361-7.607 1.137C-8.771 1.042-9.989.53-11.056.072c-1.352-.579-2.461-.494-.454-.692l3.501-1.204c1.106-.699.103.721.874 2.084.689 1.219 1.347 2.457 2.005 3.693 1.295 2.435 2.502 4.915 3.685 7.406 2.485 5.23 4.699 10.586 6.831 15.968 3.838 9.694 7.254 19.55 11.23 29.19 7.383 17.897 17.601 34.148 36.011 42.092 26.74 11.539 56.285 4.351 84.264 7.265 6.868.716 14.849 1.904 21.052 5.07 6.092 3.109 11.823 6.845 17.358 10.848 10.484 7.581 20.068 16.322 30.61 23.83 7.28 5.185 15.069 9.425 23.551 12.282 8.797 2.963 18.309 3.88 27.501 4.729 19.083 1.762 38.599 2.385 56.176 10.893 5.885 2.849-.159 8.896-4.85 6.625-25.228-12.212-54.246-7.025-80.637-14.704-25.407-7.393-43.177-27.346-64.466-41.793-6.246-4.238-12.225-7.355-19.633-9.009-7.831-1.749-15.868-2.13-23.865-2.139-14.801-.016-29.486 1.247-44.253-.431-21.58-2.45-41.761-10.63-55.013-28.388C9.055 68.455 3.513 49.547-3.244 32.039c-3.898-10.099-8.221-20.021-13.47-29.497-1.762-3.181-1.126-8.359 2.472-10.071 1.747-.83 4.035-.822 5.821-.094.883.36 2.647 1.52 3.182 1.301C-.522-8.256 6.057-2.484 0 0" style="fill:#000;fill-opacity:1;fill-rule:nonzero;stroke:none" transform="translate(227.286 1374.666)"/><path d="M0 0c-4.103 12.772-4.476 25.699 1.478 37.964 4.294 8.844 10.748 15.781 18.441 21.714C35.034 71.333 55.19 82.295 74.776 81.996c8.973-.137 16.302-4.354 20.744-12.162 4.192-7.369 3.319-16.849 2.145-24.87-2.6-17.765-10.486-36.031-6.031-54.14 1.97-8.013 7.897-15.129 13.289-21.161 4.273-4.782 9.252-8.85 15.275-11.175 10.807-4.173 21.848 1.173 29.918 8.313 10.194 9.018 17.554 21.154 24.268 32.845 7.562 13.171 14.227 26.832 21.511 40.154 3.126 5.718 6.382 11.376 10.043 16.769 2.488 3.664 5.943 7.864 8.702 9.927 4.795 3.588 15.204 7.29 22.627 8.493 4.348.706 7.569-.484 9.061-4.592 1.808-4.978 1.81-10.657 2.444-15.861.779-6.379 2.305-12.52 5.515-18.137 4.734-8.284 14.083-13.685 22.867-16.568 11.7-3.84 24.536-1.719 36.005 1.81 15.048 4.629 29.078 11.977 43.872 17.299 7.924 2.851 15.579 5.09 23.076 9.074 7.792 4.14 15.21 8.94 23.078 12.946l-5.524 1.724c6.327-15.702 13.674-30.964 20-46.666 2.017-5.005 10.783-.43 9.006 3.982-6.327 15.702-13.674 30.965-20 46.667-.896 2.222-3.443 2.782-5.523 1.724-12.806-6.522-24.779-15.842-38.808-19.614-13.096-3.521-25.423-9.847-37.947-14.924-11.939-4.84-25.075-9.264-38.105-6.995-9.631 1.677-19.328 7.425-24.246 16.03-5.806 10.159-2.707 22.548-7.281 32.932-6.448 14.642-27.269 5.067-37.304.608-10.841-4.818-17.303-13.807-23.356-23.705-7.633-12.482-14.017-25.71-20.901-38.609-6.711-12.573-13.655-25.424-22.933-36.323-6.073-7.134-13.868-14.309-23.525-11.761-5.72 1.509-10.45 5.833-14.29 10.13-5.593 6.258-10.886 13.168-12.434 21.561-1.623 8.797.473 18.294 2.317 26.886 1.972 9.183 4.318 18.317 5.22 27.689 1.671 17.387-6.149 34.703-24.857 37.62-19.639 3.063-40.252-6.888-56.515-16.849C14.998 66.22 5.027 57.958-2.412 47.101-12.973 31.689-14.647 13.579-9.006-3.982-7.362-9.099 1.464-4.559 0 0" style="fill:#000;fill-opacity:1;fill-rule:nonzero;stroke:none" transform="translate(2409.169 1493.496)"/><path d="M0 0c-17.595 11.555-5.583 30.426 5.104 42.213 12.661 13.963 28.452 25.766 44.761 35.146l-7.594 1.137c9.865-17.823 18.811-36.13 30.259-53.031C83.168 9.761 96.808-6.691 115.75-12.14c8.992-2.587 19.985-2.721 28.75.62 8.415 3.209 14.428 10.2 20.354 16.645 7.438 8.09 16.727 13.547 25.188 20.469 3.327 2.722 6.613 5.504 10.057 8.079a40.498 40.498 0 0 0 3.339 2.247c.545.327 2.177.976 1.832.89 2.636.667 5.017.319 8.197.137 5.797-.332 11.585-.534 17.392-.526 15.982.022 31.963.706 47.93 1.35 17.096.689 34.191 1.434 51.298 1.801 7.817.168 15.655.311 23.472.112 6.596-.168 11.427-2.381 16.894-5.969 4.064-2.668 11.444 2.851 6.214 6.285-3.983 2.615-8.052 4.916-12.684 6.151-5.255 1.402-10.926 1.144-16.307 1.146-13.816.004-27.629-.44-41.433-.949-26.917-.994-53.934-2.885-80.879-2.318-6.654.14-13.617 1.339-20.248.384-5.978-.86-10.792-4.837-15.342-8.492-4.171-3.352-8.287-6.773-12.441-10.145-4.498-3.649-9.59-6.317-13.978-10.156-6.668-5.834-11.63-13.572-19.064-18.524-8.463-5.638-21.385-4.058-30.211.029-10.24 4.74-18.327 13.466-25.281 22.115-15.269 18.99-25.552 41.452-37.283 62.646-1.47 2.654-5.329 2.439-7.595 1.136C21.112 69.904-48.034 21.177-6.214-6.285-2.15-8.954 5.23-3.435 0 0" style="fill:#000;fill-opacity:1;fill-rule:nonzero;stroke:none" transform="translate(591.107 577.98)"/><path d="M0 0c3.823 19.986 16.576 38.229 30.709 52.391C45.756 67.468 65.926 80.126 87.945 79.05c16.602-.812 27.344-15.562 38.069-26.476 10.31-10.492 22.59-19.8 38.134-16.828 14.049 2.685 25.497 14.786 34.263 25.192 4.203 4.989 9.858 10.108 12.861 15.958 3.045 5.93.646 12.669-1.578 18.425-1.702 4.408-11.3 3.381-9.201-2.054 1.604-4.152 3.505-9.046 1.311-13.318-2.161-4.211-6.305-7.637-9.297-11.252-7.638-9.224-15.898-18.81-26.98-23.961-13.956-6.486-25.148 5.006-34.139 14.342-11.358 11.793-22.577 24.63-39.628 27.1-21.453 3.106-42.209-6.469-58.717-19.436C13.133 51.1-4.973 27.229-9.813 1.922-10.755-3.003-.94-4.921 0 0" style="fill:#000;fill-opacity:1;fill-rule:nonzero;stroke:none" transform="translate(2369.572 737.21)"/></g></svg>